<mxfile host="app.diagrams.net" modified="2023-08-22T14:14:22.611Z" agent="Mozilla/5.0 (Windows NT 10.0; Win64; x64) AppleWebKit/537.36 (KHTML, like Gecko) Chrome/116.0.0.0 Safari/537.36" version="21.6.8" etag="XgScp4g7zQ84DQh6tGti" type="github">
  <diagram name="페이지-1" id="r2VCSriBcXLVP3AVo2Ea">
    <mxGraphModel>
      <root>
        <mxCell id="0" />
        <mxCell id="1" parent="0" />
      </root>
    </mxGraphModel>
  </diagram>
</mxfile>
